<svg aria-hidden="true" style="position:absolute;width:0;height:0;overflow:hidden" xmlns="http://www.w3.org/2000/svg">
<defs>
<symbol id="icon-arrow-left" viewBox="0 0 33 32">
<path stroke-width="2.6667" stroke-miterlimit="4" stroke-linecap="round" stroke-linejoin="round" d="M27.333 16h-21.333"></path>
<path stroke-width="2.6667" stroke-miterlimit="4" stroke-linecap="round" stroke-linejoin="round" d="M14 24l-8-8 8-8"></path>
</symbol>
<symbol id="icon-arrow-right" viewBox="0 0 33 32">
<path stroke-linejoin="round" stroke-linecap="round" stroke-miterlimit="4" stroke-width="2.6667" d="M6 16h21.333"></path>
<path stroke-linejoin="round" stroke-linecap="round" stroke-miterlimit="4" stroke-width="2.6667" d="M19.333 8l8 8-8 8"></path>
</symbol>
<symbol id="icon-arrow-right-bl" viewBox="0 0 32 32">
<path stroke-width="1.6" stroke-miterlimit="4" stroke-linecap="round" stroke-linejoin="round" d="M5.333 16h21.333"></path>
<path stroke-width="1.6" stroke-miterlimit="4" stroke-linecap="round" stroke-linejoin="round" d="M18.667 8l8 8-8 8"></path>
</symbol>
<symbol id="icon-brush" viewBox="0 0 32 32">
<path fill="none" stroke-width="2.6667" stroke-miterlimit="4" stroke-linecap="round" stroke-linejoin="round" style="stroke: var(--color1, #fafafa)" d="M17.037 20l-5.037-5.037"></path>
<path fill="none" stroke-width="2.6667" stroke-miterlimit="4" stroke-linecap="round" stroke-linejoin="round" style="stroke: var(--color1, #fafafa)" d="M2.667 29.334c2.667 0 6.144 0.456 7.966-1.367s1.822-4.777 0-6.6-4.777-1.822-6.6 0c-1.822 1.822 0 5.3-1.367 7.967z"></path>
<path fill="none" stroke-width="2.6667" stroke-miterlimit="4" stroke-linecap="round" stroke-linejoin="round" style="stroke: var(--color1, #fafafa)" d="M10.667 21.334c-0.655-0.655-0.983-0.983-1.168-1.326-0.444-0.823-0.425-1.818 0.050-2.623 0.198-0.336 0.538-0.65 1.218-1.28l13.157-12.183c1.159-1.073 2.959-1.038 4.075 0.078s1.151 2.917 0.078 4.075l-12.183 13.157c-0.63 0.68-0.944 1.020-1.28 1.218-0.805 0.475-1.8 0.495-2.623 0.050-0.343-0.185-0.671-0.513-1.326-1.168z"></path>
</symbol>
<symbol id="icon-down-arrow" viewBox="0 0 32 32">
<path fill="none" stroke-width="3.2" stroke-miterlimit="4" stroke-linecap="butt" stroke-linejoin="miter" style="stroke: var(--color1, #fafafa)" d="M24 12l-8 8-8-8"></path>
</symbol>
<symbol id="icon-hourglass" viewBox="0 0 32 32">
<path fill="none" stroke-width="2.6667" stroke-miterlimit="4" stroke-linecap="round" stroke-linejoin="round" style="stroke: var(--color1, #fafafa)" d="M24.217 2.667h-16.434c-0.617 0-1.117 0.5-1.117 1.117 0 3.554 1.412 6.962 3.925 9.475l1.626 1.626c0.161 0.161 0.242 0.242 0.3 0.32 0.352 0.473 0.352 1.121 0 1.594-0.058 0.077-0.139 0.158-0.3 0.32l-1.626 1.626c-2.513 2.513-3.925 5.921-3.925 9.475 0 0.617 0.5 1.117 1.117 1.117h16.434c0.617 0 1.117-0.5 1.117-1.117 0-3.554-1.412-6.962-3.925-9.475l-1.626-1.626c-0.161-0.161-0.242-0.242-0.3-0.32-0.353-0.473-0.353-1.121 0-1.594 0.058-0.077 0.139-0.158 0.3-0.32l1.626-1.626c2.513-2.513 3.925-5.921 3.925-9.475 0-0.617-0.5-1.117-1.117-1.117z"></path>
</symbol>
<symbol id="icon-message-chat" viewBox="0 0 32 32">
<path fill="none" stroke-width="2.6667" stroke-miterlimit="4" stroke-linecap="round" stroke-linejoin="round" style="stroke: var(--color1, #fafafa)" d="M8.126 14.972c-0.083-0.534-0.126-1.081-0.126-1.638 0-5.891 4.807-10.667 10.737-10.667s10.737 4.776 10.737 10.667c0 1.331-0.245 2.605-0.693 3.779-0.093 0.244-0.14 0.366-0.161 0.461s-0.029 0.161-0.031 0.257c-0.002 0.097 0.011 0.205 0.037 0.42l0.537 4.36c0.058 0.472 0.087 0.708 0.009 0.88-0.069 0.15-0.191 0.27-0.343 0.335-0.173 0.075-0.409 0.040-0.879-0.029l-4.247-0.623c-0.222-0.033-0.333-0.049-0.434-0.048-0.1 0.001-0.169 0.008-0.267 0.028s-0.225 0.068-0.477 0.163c-1.178 0.441-2.454 0.683-3.787 0.683-0.558 0-1.105-0.042-1.64-0.124M10.175 29.333c3.953 0 7.158-3.283 7.158-7.333s-3.205-7.333-7.158-7.333c-3.953 0-7.158 3.283-7.158 7.333 0 0.814 0.13 1.597 0.369 2.329 0.101 0.309 0.152 0.464 0.168 0.57 0.017 0.11 0.020 0.172 0.014 0.284-0.006 0.107-0.033 0.227-0.086 0.469l-0.815 3.682 3.993-0.545c0.218-0.030 0.327-0.045 0.422-0.044 0.1 0.001 0.153 0.006 0.252 0.026 0.093 0.019 0.232 0.067 0.51 0.165 0.731 0.258 1.516 0.398 2.332 0.398z"></path>
</symbol>
<symbol id="icon-up-arrow" viewBox="0 0 32 32">
<path fill="none" stroke-width="3.2" stroke-miterlimit="4" stroke-linecap="butt" stroke-linejoin="miter" style="stroke: var(--color1, #fafafa)" d="M24 20l-8-8-8 8"></path>
</symbol>
<symbol id="icon-user" viewBox="0 0 32 32">
<path fill="none" stroke-width="2.6667" stroke-miterlimit="4" stroke-linecap="round" stroke-linejoin="round" style="stroke: var(--color1, #fafafa)" d="M26.667 28c0-1.861 0-2.791-0.23-3.548-0.517-1.705-1.851-3.039-3.556-3.556-0.757-0.23-1.687-0.23-3.548-0.23h-6.667c-1.861 0-2.791 0-3.548 0.23-1.705 0.517-3.038 1.851-3.556 3.556-0.23 0.757-0.23 1.687-0.23 3.548"></path>
<path fill="none" stroke-width="2.6667" stroke-miterlimit="4" stroke-linecap="round" stroke-linejoin="round" style="stroke: var(--color1, #fafafa)" d="M16 16c3.314 0 6-2.686 6-6s-2.686-6-6-6c-3.314 0-6 2.686-6 6s2.686 6 6 6z"></path>
</symbol>
<symbol id="icon-burger" viewBox="0 0 32 32">
<path fill="none" stroke-width="2.2857" stroke-miterlimit="4" stroke-linecap="round" stroke-linejoin="round" style="stroke: var(--color1)" d="M4 11.333h24M4 20.667h24"></path>
</symbol>
<symbol id="icon-HTML" viewBox="0 0 158 32">
<path style="fill: var(--color1, #fafafa)" d="M0.289 26.947v-24.507h3.701v10.658h12.204v-10.658h3.701v24.507h-3.701v-10.674h-12.204v10.674h-3.701zM21.951 5.615v-3.174h18.98v3.174h-7.632v21.332h-3.684v-21.332h-7.665zM42.988 2.441h4.507l7.796 19.046h0.28l7.813-19.046h4.572v24.507h-3.618v-17.73h-0.23l-7.253 17.697h-2.928l-7.171-17.714h-0.23v17.747h-3.536v-24.507zM71.229 26.947v-24.507h3.701v21.332h11.102v3.174h-14.803zM97.2 1.289l-7.895 29.342h-3.191l7.895-29.342h3.191zM108.664 27.276c-2.105 0-3.991-0.504-5.658-1.513s-2.977-2.451-3.931-4.326c-0.954-1.886-1.431-4.128-1.431-6.727 0-2.621 0.477-4.868 1.431-6.743 0.965-1.886 2.275-3.333 3.931-4.342 1.667-1.009 3.552-1.513 5.658-1.513 1.294 0 2.506 0.186 3.635 0.559 1.14 0.373 2.16 0.916 3.059 1.628s1.639 1.584 2.22 2.615c0.592 1.031 0.987 2.198 1.184 3.503h-3.717c-0.142-0.8-0.411-1.502-0.806-2.105-0.384-0.614-0.861-1.129-1.431-1.546-0.559-0.428-1.19-0.746-1.892-0.954-0.691-0.219-1.425-0.329-2.204-0.329-1.403 0-2.67 0.356-3.799 1.069-1.118 0.702-2.001 1.743-2.648 3.125-0.636 1.371-0.954 3.048-0.954 5.033 0 1.996 0.324 3.679 0.97 5.049 0.647 1.36 1.53 2.39 2.648 3.092s2.374 1.053 3.767 1.053c0.778 0 1.513-0.104 2.204-0.313s1.321-0.521 1.891-0.937 1.047-0.921 1.431-1.513c0.395-0.603 0.669-1.299 0.822-2.089h3.717c-0.186 1.217-0.565 2.33-1.135 3.339-0.57 0.998-1.299 1.864-2.187 2.599-0.888 0.724-1.902 1.288-3.043 1.694-1.14 0.395-2.385 0.592-3.734 0.592zM129.323 27.342c-1.831 0-3.421-0.285-4.77-0.855-1.338-0.581-2.385-1.409-3.141-2.484s-1.179-2.352-1.267-3.832h3.717c0.077 0.888 0.362 1.628 0.855 2.22 0.504 0.581 1.157 1.014 1.957 1.299s1.678 0.428 2.632 0.428c1.042 0 1.974-0.164 2.796-0.493s1.464-0.789 1.924-1.382c0.472-0.603 0.707-1.305 0.707-2.105 0-0.724-0.208-1.316-0.625-1.776-0.406-0.46-0.959-0.839-1.661-1.135-0.702-0.307-1.491-0.576-2.368-0.806l-2.878-0.789c-1.974-0.526-3.531-1.31-4.671-2.352-1.14-1.053-1.71-2.429-1.71-4.128 0-1.414 0.378-2.648 1.135-3.701 0.768-1.053 1.804-1.87 3.109-2.451 1.316-0.592 2.791-0.888 4.424-0.888 1.667 0 3.13 0.296 4.391 0.888 1.272 0.581 2.275 1.382 3.010 2.401 0.746 1.009 1.135 2.166 1.168 3.47h-3.586c-0.132-1.129-0.658-2.007-1.579-2.632-0.91-0.625-2.072-0.938-3.487-0.938-0.987 0-1.853 0.159-2.599 0.477-0.735 0.307-1.305 0.735-1.71 1.283-0.395 0.548-0.592 1.179-0.592 1.891 0 0.768 0.236 1.393 0.707 1.875 0.483 0.482 1.064 0.866 1.743 1.151 0.691 0.274 1.354 0.499 1.99 0.674l2.385 0.641c0.778 0.197 1.579 0.461 2.401 0.789s1.584 0.762 2.286 1.299c0.713 0.526 1.283 1.184 1.71 1.974 0.439 0.779 0.658 1.722 0.658 2.829 0 1.371-0.356 2.599-1.069 3.684-0.713 1.075-1.743 1.924-3.092 2.549-1.349 0.614-2.982 0.921-4.901 0.921zM148.912 27.342c-1.831 0-3.421-0.285-4.77-0.855-1.338-0.581-2.385-1.409-3.142-2.484s-1.179-2.352-1.266-3.832h3.717c0.077 0.888 0.362 1.628 0.855 2.22 0.504 0.581 1.157 1.014 1.957 1.299s1.678 0.428 2.632 0.428c1.042 0 1.974-0.164 2.796-0.493s1.464-0.789 1.924-1.382c0.471-0.603 0.707-1.305 0.707-2.105 0-0.724-0.208-1.316-0.625-1.776-0.406-0.46-0.959-0.839-1.661-1.135-0.702-0.307-1.491-0.576-2.369-0.806l-2.878-0.789c-1.974-0.526-3.531-1.31-4.671-2.352-1.14-1.053-1.71-2.429-1.71-4.128 0-1.414 0.378-2.648 1.135-3.701 0.768-1.053 1.804-1.87 3.109-2.451 1.316-0.592 2.791-0.888 4.424-0.888 1.667 0 3.13 0.296 4.391 0.888 1.272 0.581 2.275 1.382 3.010 2.401 0.746 1.009 1.135 2.166 1.168 3.47h-3.586c-0.132-1.129-0.658-2.007-1.579-2.632-0.91-0.625-2.072-0.938-3.487-0.938-0.987 0-1.853 0.159-2.599 0.477-0.735 0.307-1.305 0.735-1.711 1.283-0.395 0.548-0.592 1.179-0.592 1.891 0 0.768 0.236 1.393 0.707 1.875 0.482 0.482 1.064 0.866 1.743 1.151 0.691 0.274 1.354 0.499 1.99 0.674l2.385 0.641c0.778 0.197 1.579 0.461 2.401 0.789s1.584 0.762 2.286 1.299c0.713 0.526 1.283 1.184 1.71 1.974 0.439 0.779 0.658 1.722 0.658 2.829 0 1.371-0.356 2.599-1.069 3.684-0.713 1.075-1.744 1.924-3.092 2.549-1.349 0.614-2.983 0.921-4.901 0.921z"></path>
</symbol>
<symbol id="icon-JavaScript" viewBox="0 0 136 32">
<path style="fill: var(--color1, #fafafa)" d="M7.083 24.679c-1.26 0-2.391-0.223-3.393-0.67-1.002-0.456-1.796-1.121-2.381-1.994s-0.878-1.935-0.878-3.185v-0.432h3.318v0.432c0 0.605 0.139 1.136 0.417 1.592 0.288 0.456 0.68 0.809 1.176 1.057 0.506 0.238 1.086 0.357 1.741 0.357 0.704 0 1.305-0.149 1.801-0.446s0.873-0.734 1.131-1.31c0.258-0.585 0.387-1.299 0.387-2.143v-15.729h3.318v15.729c0 1.419-0.273 2.634-0.818 3.646-0.536 1.002-1.3 1.771-2.292 2.306-0.992 0.526-2.168 0.789-3.527 0.789zM21.266 24.738c-1.052 0-2.004-0.194-2.857-0.58-0.853-0.397-1.528-0.972-2.024-1.726s-0.744-1.672-0.744-2.753c0-0.942 0.179-1.711 0.536-2.307 0.367-0.605 0.858-1.086 1.473-1.444s1.3-0.625 2.054-0.804c0.754-0.179 1.528-0.317 2.321-0.417 1.002-0.109 1.811-0.203 2.426-0.283s1.061-0.203 1.339-0.372c0.288-0.179 0.432-0.461 0.432-0.848v-0.074c0-0.942-0.268-1.672-0.803-2.188-0.526-0.516-1.31-0.774-2.351-0.774-1.081 0-1.939 0.238-2.574 0.714-0.625 0.466-1.057 0.997-1.295 1.592l-3.050-0.699c0.367-1.012 0.898-1.825 1.592-2.441 0.704-0.625 1.508-1.081 2.411-1.369 0.913-0.288 1.865-0.432 2.857-0.432 0.665 0 1.369 0.079 2.113 0.238 0.744 0.149 1.443 0.432 2.098 0.848 0.665 0.407 1.205 0.992 1.622 1.756s0.625 1.751 0.625 2.961v11.042h-3.17v-2.277h-0.119c-0.198 0.407-0.511 0.813-0.937 1.22-0.417 0.407-0.952 0.744-1.607 1.012s-1.444 0.402-2.366 0.402zM21.965 22.149c0.903 0 1.672-0.174 2.306-0.521 0.635-0.357 1.121-0.823 1.458-1.399s0.506-1.186 0.506-1.83v-2.158c-0.119 0.109-0.342 0.213-0.67 0.313s-0.699 0.183-1.116 0.253c-0.417 0.070-0.823 0.134-1.22 0.193-0.397 0.050-0.729 0.089-0.997 0.119-0.625 0.089-1.195 0.228-1.711 0.417-0.516 0.179-0.933 0.446-1.25 0.804-0.308 0.347-0.461 0.809-0.461 1.384 0 0.803 0.298 1.409 0.893 1.815s1.349 0.61 2.262 0.61zM45.567 7.744l-6.012 16.637h-3.482l-6.027-16.637h3.467l4.226 12.827h0.179l4.196-12.827h3.452zM51.058 24.738c-1.052 0-2.004-0.194-2.857-0.58-0.853-0.397-1.528-0.972-2.024-1.726s-0.744-1.672-0.744-2.753c0-0.942 0.179-1.711 0.536-2.307 0.367-0.605 0.858-1.086 1.473-1.444s1.3-0.625 2.053-0.804c0.754-0.179 1.528-0.317 2.322-0.417 1.002-0.109 1.81-0.203 2.426-0.283s1.062-0.203 1.339-0.372c0.288-0.179 0.432-0.461 0.432-0.848v-0.074c0-0.942-0.268-1.672-0.804-2.188-0.526-0.516-1.309-0.774-2.351-0.774-1.081 0-1.94 0.238-2.574 0.714-0.625 0.466-1.056 0.997-1.295 1.592l-3.050-0.699c0.367-1.012 0.898-1.825 1.592-2.441 0.704-0.625 1.508-1.081 2.411-1.369 0.913-0.288 1.865-0.432 2.857-0.432 0.665 0 1.369 0.079 2.113 0.238 0.744 0.149 1.444 0.432 2.098 0.848 0.665 0.407 1.205 0.992 1.622 1.756s0.625 1.751 0.625 2.961v11.042h-3.17v-2.277h-0.119c-0.198 0.407-0.511 0.813-0.937 1.22-0.417 0.407-0.952 0.744-1.607 1.012s-1.444 0.402-2.366 0.402zM51.758 22.149c0.903 0 1.672-0.174 2.307-0.521 0.635-0.357 1.121-0.823 1.458-1.399s0.506-1.186 0.506-1.83v-2.158c-0.119 0.109-0.342 0.213-0.67 0.313s-0.699 0.183-1.116 0.253c-0.417 0.070-0.823 0.134-1.22 0.193-0.397 0.050-0.729 0.089-0.997 0.119-0.625 0.089-1.195 0.228-1.711 0.417-0.516 0.179-0.932 0.446-1.25 0.804-0.307 0.347-0.461 0.809-0.461 1.384 0 0.803 0.298 1.409 0.893 1.815s1.349 0.61 2.262 0.61zM69.422 24.738c-1.657 0-3.095-0.258-4.315-0.774-1.21-0.526-2.158-1.275-2.842-2.247s-1.066-2.128-1.146-3.467h3.363c0.070 0.803 0.327 1.473 0.774 2.009 0.456 0.526 1.047 0.918 1.771 1.176s1.518 0.387 2.381 0.387c0.942 0 1.786-0.149 2.53-0.446s1.324-0.714 1.741-1.25c0.427-0.546 0.64-1.18 0.64-1.905 0-0.655-0.189-1.19-0.566-1.607-0.367-0.417-0.868-0.759-1.503-1.027-0.635-0.278-1.349-0.521-2.143-0.729l-2.604-0.714c-1.786-0.476-3.194-1.185-4.226-2.128-1.032-0.952-1.548-2.197-1.548-3.735 0-1.28 0.342-2.396 1.027-3.348 0.694-0.952 1.632-1.691 2.813-2.217 1.191-0.536 2.525-0.804 4.003-0.804 1.508 0 2.832 0.268 3.973 0.804 1.151 0.526 2.058 1.25 2.723 2.173 0.675 0.913 1.027 1.959 1.057 3.14h-3.244c-0.119-1.022-0.595-1.815-1.429-2.381-0.823-0.566-1.875-0.848-3.155-0.848-0.893 0-1.677 0.144-2.351 0.432-0.665 0.278-1.181 0.665-1.548 1.161-0.357 0.496-0.536 1.066-0.536 1.711 0 0.694 0.213 1.26 0.64 1.696 0.437 0.437 0.962 0.784 1.577 1.042 0.625 0.248 1.225 0.451 1.801 0.61l2.158 0.58c0.704 0.179 1.429 0.417 2.173 0.714s1.433 0.69 2.068 1.176c0.645 0.476 1.161 1.071 1.548 1.786 0.397 0.704 0.595 1.558 0.595 2.56 0 1.24-0.322 2.351-0.967 3.333-0.645 0.972-1.577 1.741-2.798 2.307-1.22 0.556-2.698 0.833-4.435 0.833zM86.461 24.723c-1.597 0-2.976-0.367-4.137-1.101s-2.054-1.746-2.679-3.036c-0.625-1.29-0.938-2.768-0.938-4.435 0-1.696 0.318-3.189 0.952-4.479 0.645-1.3 1.543-2.312 2.694-3.036 1.161-0.734 2.52-1.101 4.077-1.101 1.27 0 2.396 0.233 3.378 0.699 0.992 0.456 1.791 1.106 2.396 1.949 0.615 0.843 0.977 1.825 1.086 2.946h-3.155c-0.109-0.526-0.322-1.007-0.64-1.443-0.308-0.437-0.714-0.784-1.22-1.042s-1.106-0.387-1.801-0.387c-0.903 0-1.691 0.238-2.366 0.714-0.665 0.466-1.186 1.136-1.563 2.009s-0.566 1.905-0.566 3.095c0 1.2 0.183 2.247 0.551 3.14s0.888 1.582 1.563 2.069c0.684 0.476 1.478 0.714 2.381 0.714 0.933 0 1.726-0.258 2.381-0.774 0.665-0.516 1.091-1.22 1.28-2.113h3.155c-0.109 1.081-0.456 2.044-1.042 2.887s-1.369 1.508-2.351 1.994-2.128 0.729-3.438 0.729zM94.974 24.381v-16.637h3.11v2.664h0.179c0.308-0.893 0.843-1.597 1.607-2.113 0.774-0.526 1.647-0.789 2.619-0.789 0.198 0 0.432 0.010 0.699 0.030 0.278 0.010 0.501 0.025 0.67 0.045v3.095c-0.129-0.040-0.362-0.079-0.699-0.119-0.327-0.040-0.66-0.060-0.997-0.060-0.764 0-1.449 0.164-2.054 0.491-0.595 0.317-1.067 0.759-1.414 1.324-0.337 0.556-0.506 1.2-0.506 1.935v10.134h-3.214zM104.811 24.381v-16.637h3.214v16.637h-3.214zM106.433 5.185c-0.566 0-1.047-0.188-1.444-0.565s-0.595-0.828-0.595-1.354c0-0.536 0.198-0.992 0.595-1.369s0.878-0.565 1.444-0.565c0.556 0 1.032 0.188 1.429 0.565 0.407 0.377 0.61 0.833 0.61 1.369 0 0.526-0.203 0.977-0.61 1.354-0.397 0.377-0.873 0.565-1.429 0.565zM110.511 30.601v-22.857h3.125v2.708h0.268c0.198-0.347 0.471-0.749 0.818-1.205 0.357-0.456 0.853-0.853 1.488-1.19 0.635-0.347 1.463-0.521 2.485-0.521 1.339 0 2.53 0.337 3.571 1.012 1.052 0.675 1.88 1.652 2.485 2.932s0.908 2.822 0.908 4.628c0 1.786-0.298 3.323-0.893 4.613-0.595 1.28-1.419 2.267-2.47 2.961-1.042 0.684-2.237 1.027-3.586 1.027-1.002 0-1.825-0.169-2.47-0.506-0.635-0.347-1.136-0.749-1.503-1.205-0.357-0.456-0.635-0.858-0.833-1.205h-0.179v8.809h-3.214zM118.011 21.955c0.962 0 1.766-0.258 2.411-0.774s1.131-1.215 1.458-2.098c0.337-0.893 0.506-1.895 0.506-3.006 0-1.101-0.164-2.088-0.491-2.961s-0.814-1.563-1.458-2.068c-0.645-0.506-1.453-0.759-2.426-0.759-0.942 0-1.736 0.243-2.381 0.729-0.645 0.476-1.136 1.151-1.473 2.024-0.327 0.863-0.491 1.875-0.491 3.036s0.169 2.183 0.506 3.065 0.828 1.572 1.473 2.068c0.655 0.496 1.444 0.744 2.366 0.744zM135.139 7.744v2.604h-9.078v-2.604h9.078zM128.487 3.786h3.229v15.714c0 0.764 0.159 1.324 0.476 1.682 0.317 0.347 0.828 0.521 1.533 0.521 0.169 0 0.347-0.010 0.536-0.030 0.198-0.020 0.397-0.050 0.595-0.089l0.61 2.679c-0.327 0.109-0.685 0.193-1.071 0.253s-0.774 0.089-1.161 0.089c-1.439 0-2.589-0.402-3.452-1.205-0.863-0.814-1.295-1.895-1.295-3.244v-16.369z"></path>
</symbol>
<symbol id="icon-Node-js" viewBox="0 0 102 32">
<path style="fill: var(--color1, #fafafa)" d="M18.194 2.208v22.173h-3.125l-11.235-16.25h-0.223v16.25h-3.348v-22.173h3.095l11.28 16.28h0.208v-16.28h3.348zM27.911 24.723c-1.558 0-2.922-0.357-4.092-1.071-1.161-0.714-2.064-1.716-2.708-3.006-0.635-1.29-0.952-2.788-0.952-4.494 0-1.726 0.317-3.234 0.952-4.524 0.645-1.3 1.548-2.307 2.708-3.021 1.171-0.714 2.535-1.071 4.092-1.071 1.567 0 2.931 0.357 4.092 1.071s2.064 1.721 2.708 3.021c0.645 1.29 0.967 2.798 0.967 4.524 0 1.706-0.322 3.204-0.967 4.494s-1.548 2.292-2.708 3.006c-1.161 0.714-2.525 1.071-4.092 1.071zM27.911 22c1.022 0 1.865-0.268 2.53-0.803s1.156-1.245 1.473-2.128c0.327-0.893 0.491-1.865 0.491-2.917 0-1.071-0.164-2.054-0.491-2.946-0.318-0.893-0.809-1.607-1.473-2.143s-1.508-0.804-2.53-0.804c-1.012 0-1.85 0.268-2.515 0.804-0.655 0.536-1.146 1.25-1.473 2.143s-0.491 1.875-0.491 2.946c0 1.052 0.164 2.024 0.491 2.917 0.327 0.883 0.818 1.592 1.473 2.128 0.665 0.536 1.503 0.803 2.515 0.803zM43.596 24.708c-1.349 0-2.55-0.342-3.601-1.027-1.052-0.694-1.875-1.682-2.47-2.961-0.595-1.29-0.893-2.827-0.893-4.613 0-1.806 0.303-3.348 0.908-4.628s1.434-2.257 2.485-2.932 2.242-1.012 3.572-1.012c1.042 0 1.875 0.174 2.5 0.521 0.635 0.337 1.126 0.734 1.473 1.19 0.357 0.456 0.63 0.858 0.818 1.205h0.193v-8.244h3.214v22.173h-3.14v-2.589h-0.268c-0.188 0.347-0.466 0.749-0.833 1.205s-0.868 0.858-1.503 1.205c-0.625 0.337-1.444 0.506-2.455 0.506zM44.296 21.955c0.933 0 1.721-0.248 2.366-0.744s1.131-1.186 1.458-2.068c0.337-0.883 0.506-1.905 0.506-3.065s-0.164-2.173-0.491-3.036c-0.327-0.873-0.814-1.548-1.458-2.024-0.645-0.486-1.438-0.729-2.381-0.729-0.972 0-1.781 0.253-2.426 0.759s-1.131 1.195-1.458 2.068c-0.327 0.873-0.491 1.86-0.491 2.961 0 1.111 0.164 2.113 0.491 3.006 0.327 0.883 0.814 1.582 1.458 2.098 0.655 0.516 1.463 0.774 2.426 0.774zM61.454 24.723c-1.627 0-3.036-0.352-4.226-1.057s-2.108-1.696-2.753-2.976c-0.635-1.29-0.952-2.793-0.952-4.509 0-1.706 0.313-3.209 0.938-4.509 0.635-1.3 1.523-2.312 2.664-3.036 1.151-0.734 2.5-1.101 4.048-1.101 0.942 0 1.855 0.154 2.738 0.461s1.677 0.794 2.381 1.458c0.704 0.665 1.26 1.528 1.667 2.589 0.417 1.062 0.625 2.341 0.625 3.839v1.161h-13.229v-2.426h11.563l-1.503 0.804c0-1.022-0.159-1.925-0.476-2.708s-0.794-1.394-1.429-1.83c-0.625-0.446-1.404-0.67-2.336-0.67s-1.731 0.223-2.396 0.67c-0.655 0.446-1.156 1.037-1.503 1.771s-0.521 1.538-0.521 2.411v1.652c0 1.141 0.198 2.108 0.595 2.902s0.947 1.399 1.652 1.815c0.714 0.417 1.543 0.625 2.485 0.625 0.615 0 1.171-0.089 1.667-0.268 0.506-0.179 0.942-0.446 1.31-0.804s0.645-0.799 0.833-1.324l3.065 0.58c-0.248 0.893-0.684 1.677-1.309 2.351s-1.414 1.2-2.366 1.577c-0.942 0.367-2.019 0.551-3.229 0.551zM72.645 24.589c-0.605 0-1.121-0.208-1.548-0.625-0.417-0.417-0.625-0.928-0.625-1.533s0.208-1.116 0.625-1.533c0.427-0.417 0.942-0.625 1.548-0.625s1.116 0.208 1.533 0.625c0.427 0.417 0.64 0.928 0.64 1.533s-0.213 1.116-0.64 1.533c-0.417 0.417-0.928 0.625-1.533 0.625zM83.361 7.744h3.214v17.723c0.010 1.111-0.189 2.049-0.595 2.813s-1.002 1.339-1.786 1.726c-0.784 0.397-1.746 0.595-2.887 0.595h-0.655v-2.783h0.521c0.774 0 1.329-0.203 1.667-0.61s0.511-0.992 0.521-1.756v-17.708zM84.953 5.185c-0.566 0-1.047-0.188-1.444-0.565s-0.595-0.828-0.595-1.354c0-0.536 0.198-0.992 0.595-1.369s0.878-0.565 1.444-0.565c0.556 0 1.032 0.188 1.429 0.565 0.407 0.377 0.61 0.833 0.61 1.369 0 0.526-0.203 0.977-0.61 1.354-0.397 0.377-0.873 0.565-1.429 0.565zM101.501 11.821l-2.932 0.506c-0.189-0.556-0.541-1.066-1.056-1.533-0.506-0.466-1.265-0.699-2.277-0.699-0.913 0-1.677 0.208-2.292 0.625-0.605 0.407-0.908 0.928-0.908 1.563 0 0.556 0.203 1.007 0.61 1.354 0.417 0.347 1.076 0.625 1.979 0.833l2.664 0.595c1.518 0.347 2.654 0.893 3.408 1.637s1.131 1.696 1.131 2.857c0 1.002-0.288 1.895-0.863 2.679-0.575 0.774-1.374 1.384-2.396 1.83-1.022 0.437-2.202 0.655-3.542 0.655-1.865 0-3.383-0.402-4.554-1.205s-1.89-1.934-2.158-3.393l3.11-0.476c0.198 0.814 0.6 1.429 1.205 1.845 0.615 0.417 1.409 0.625 2.381 0.625 1.052 0 1.895-0.223 2.53-0.67 0.645-0.446 0.967-0.987 0.967-1.622 0-1.052-0.784-1.761-2.351-2.128l-2.813-0.625c-1.558-0.357-2.708-0.918-3.452-1.682-0.734-0.774-1.101-1.746-1.101-2.917 0-0.982 0.273-1.845 0.818-2.589 0.556-0.744 1.315-1.319 2.277-1.726 0.972-0.417 2.078-0.625 3.318-0.625 1.806 0 3.219 0.392 4.241 1.176 1.032 0.784 1.716 1.82 2.054 3.11z"></path>
</symbol>
<symbol id="icon-React-Native" viewBox="0 0 200 32">
<path style="fill: var(--color1, #fafafa)" d="M0.324 30.118v-27.39h9.779c2.12 0 3.879 0.368 5.276 1.103 1.397 0.723 2.445 1.734 3.143 3.033 0.698 1.287 1.048 2.776 1.048 4.467 0 1.667-0.349 3.137-1.048 4.412s-1.752 2.261-3.162 2.96c-1.397 0.698-3.162 1.048-5.294 1.048h-7.371v-3.529h6.985c1.36 0 2.457-0.196 3.29-0.588 0.846-0.392 1.458-0.95 1.838-1.673 0.392-0.723 0.588-1.599 0.588-2.629 0-1.042-0.196-1.936-0.588-2.684-0.392-0.76-1.011-1.342-1.857-1.746-0.833-0.417-1.93-0.625-3.29-0.625h-5.202v23.842h-4.136zM15.912 30.118l-6.636-12.371h4.577l6.765 12.371h-4.706zM30.582 30.54c-2.010 0-3.75-0.435-5.221-1.305s-2.604-2.095-3.401-3.676c-0.784-1.593-1.176-3.45-1.176-5.57 0-2.108 0.386-3.964 1.158-5.57 0.784-1.605 1.881-2.855 3.291-3.75 1.422-0.907 3.088-1.36 5-1.36 1.164 0 2.292 0.19 3.382 0.57s2.071 0.98 2.941 1.801c0.87 0.821 1.556 1.887 2.059 3.199 0.515 1.311 0.772 2.892 0.772 4.743v1.434h-16.342v-2.996h14.283l-1.857 0.993c0-1.262-0.196-2.377-0.588-3.346s-0.98-1.722-1.765-2.261c-0.772-0.551-1.734-0.827-2.886-0.827s-2.138 0.276-2.959 0.827c-0.809 0.551-1.428 1.281-1.857 2.188s-0.643 1.9-0.643 2.978v2.040c0 1.409 0.245 2.604 0.735 3.585s1.17 1.728 2.040 2.243c0.882 0.515 1.905 0.772 3.070 0.772 0.76 0 1.446-0.11 2.059-0.331 0.625-0.221 1.164-0.552 1.617-0.993s0.797-0.987 1.029-1.636l3.787 0.717c-0.306 1.103-0.846 2.071-1.617 2.904s-1.746 1.483-2.923 1.949c-1.164 0.453-2.494 0.68-3.989 0.68zM47.384 30.559c-1.299 0-2.475-0.239-3.529-0.717-1.054-0.49-1.887-1.201-2.5-2.132s-0.919-2.065-0.919-3.401c0-1.164 0.22-2.114 0.662-2.849 0.453-0.747 1.060-1.342 1.82-1.783s1.605-0.772 2.537-0.993c0.931-0.221 1.887-0.392 2.868-0.515 1.238-0.135 2.237-0.251 2.996-0.349s1.311-0.251 1.654-0.46c0.355-0.221 0.533-0.57 0.533-1.048v-0.092c0-1.164-0.331-2.065-0.993-2.702-0.65-0.637-1.618-0.956-2.904-0.956-1.336 0-2.396 0.294-3.18 0.882-0.772 0.576-1.305 1.232-1.599 1.967l-3.768-0.864c0.453-1.25 1.109-2.255 1.967-3.015 0.87-0.772 1.863-1.336 2.978-1.691 1.128-0.355 2.304-0.533 3.529-0.533 0.821 0 1.691 0.098 2.61 0.294 0.919 0.184 1.783 0.533 2.592 1.048 0.821 0.502 1.489 1.226 2.004 2.169s0.772 2.163 0.772 3.658v13.64h-3.915v-2.812h-0.147c-0.245 0.502-0.631 1.005-1.158 1.507-0.515 0.503-1.176 0.919-1.985 1.25s-1.783 0.496-2.923 0.496zM48.248 27.36c1.115 0 2.065-0.215 2.849-0.643 0.784-0.441 1.385-1.017 1.801-1.728s0.625-1.464 0.625-2.261v-2.665c-0.147 0.135-0.423 0.264-0.827 0.386s-0.864 0.227-1.379 0.312-1.017 0.165-1.507 0.239c-0.49 0.061-0.901 0.11-1.232 0.147-0.772 0.11-1.477 0.282-2.114 0.515-0.637 0.221-1.152 0.552-1.544 0.993-0.38 0.429-0.57 0.999-0.57 1.71 0 0.993 0.368 1.74 1.103 2.243s1.667 0.754 2.794 0.754zM69.223 30.54c-1.973 0-3.676-0.453-5.11-1.36s-2.537-2.157-3.309-3.75c-0.772-1.593-1.158-3.419-1.158-5.478 0-2.096 0.392-3.94 1.176-5.533 0.797-1.605 1.906-2.855 3.327-3.75 1.434-0.907 3.113-1.36 5.037-1.36 1.569 0 2.959 0.288 4.173 0.864 1.225 0.564 2.212 1.366 2.959 2.408 0.76 1.042 1.207 2.255 1.342 3.64h-3.897c-0.135-0.649-0.398-1.244-0.79-1.783-0.38-0.539-0.882-0.968-1.507-1.287s-1.366-0.478-2.224-0.478c-1.115 0-2.090 0.294-2.923 0.882-0.821 0.576-1.464 1.403-1.93 2.482s-0.698 2.353-0.698 3.824c0 1.483 0.227 2.776 0.68 3.879s1.097 1.955 1.93 2.555c0.846 0.588 1.826 0.882 2.941 0.882 1.152 0 2.132-0.319 2.941-0.956 0.821-0.637 1.348-1.507 1.581-2.61h3.897c-0.135 1.336-0.564 2.524-1.287 3.566s-1.691 1.863-2.904 2.463c-1.213 0.6-2.629 0.901-4.246 0.901zM89.297 9.566v3.217h-11.213v-3.217h11.213zM81.080 4.676h3.989v19.412c0 0.944 0.196 1.636 0.588 2.077 0.392 0.429 1.023 0.643 1.893 0.643 0.208 0 0.429-0.012 0.662-0.037 0.245-0.025 0.49-0.061 0.735-0.11l0.754 3.309c-0.404 0.135-0.846 0.239-1.323 0.312s-0.956 0.11-1.434 0.11c-1.777 0-3.199-0.496-4.265-1.489-1.066-1.005-1.599-2.341-1.599-4.007v-20.221zM121.486 2.728v27.39h-3.86l-13.879-20.074h-0.276v20.074h-4.136v-27.39h3.823l13.934 20.11h0.257v-20.11h4.136zM130.825 30.559c-1.299 0-2.475-0.239-3.529-0.717-1.054-0.49-1.887-1.201-2.5-2.132s-0.919-2.065-0.919-3.401c0-1.164 0.221-2.114 0.662-2.849 0.453-0.747 1.060-1.342 1.82-1.783s1.605-0.772 2.537-0.993c0.931-0.221 1.887-0.392 2.868-0.515 1.238-0.135 2.237-0.251 2.996-0.349s1.311-0.251 1.654-0.46c0.355-0.221 0.533-0.57 0.533-1.048v-0.092c0-1.164-0.331-2.065-0.993-2.702-0.65-0.637-1.618-0.956-2.904-0.956-1.336 0-2.396 0.294-3.18 0.882-0.772 0.576-1.305 1.232-1.599 1.967l-3.768-0.864c0.453-1.25 1.109-2.255 1.967-3.015 0.87-0.772 1.863-1.336 2.978-1.691 1.127-0.355 2.304-0.533 3.529-0.533 0.821 0 1.691 0.098 2.61 0.294 0.919 0.184 1.783 0.533 2.592 1.048 0.821 0.502 1.489 1.226 2.004 2.169s0.772 2.163 0.772 3.658v13.64h-3.915v-2.812h-0.147c-0.245 0.502-0.631 1.005-1.158 1.507-0.515 0.503-1.176 0.919-1.985 1.25s-1.783 0.496-2.923 0.496zM131.689 27.36c1.115 0 2.065-0.215 2.849-0.643 0.784-0.441 1.385-1.017 1.802-1.728s0.625-1.464 0.625-2.261v-2.665c-0.147 0.135-0.423 0.264-0.827 0.386s-0.864 0.227-1.379 0.312c-0.515 0.086-1.017 0.165-1.507 0.239-0.49 0.061-0.901 0.11-1.232 0.147-0.772 0.11-1.477 0.282-2.114 0.515-0.637 0.221-1.152 0.552-1.544 0.993-0.38 0.429-0.57 0.999-0.57 1.71 0 0.993 0.368 1.74 1.103 2.243s1.667 0.754 2.794 0.754zM153.601 9.566v3.217h-11.213v-3.217h11.213zM145.384 4.676h3.989v19.412c0 0.944 0.196 1.636 0.588 2.077 0.392 0.429 1.023 0.643 1.893 0.643 0.208 0 0.429-0.012 0.662-0.037 0.245-0.025 0.49-0.061 0.735-0.11l0.754 3.309c-0.404 0.135-0.846 0.239-1.323 0.312s-0.956 0.11-1.434 0.11c-1.777 0-3.198-0.496-4.265-1.489-1.066-1.005-1.599-2.341-1.599-4.007v-20.221zM155.716 30.118v-20.551h3.971v20.551h-3.971zM157.72 6.404c-0.699 0-1.293-0.233-1.783-0.699s-0.735-1.023-0.735-1.673c0-0.662 0.245-1.226 0.735-1.691s1.085-0.699 1.783-0.699c0.686 0 1.275 0.233 1.765 0.699 0.502 0.466 0.754 1.029 0.754 1.691 0 0.649-0.251 1.207-0.754 1.673-0.49 0.466-1.078 0.699-1.765 0.699zM180.294 9.566l-7.426 20.551h-4.301l-7.445-20.551h4.283l5.221 15.846h0.221l5.184-15.846h4.265zM189.854 30.54c-2.010 0-3.75-0.435-5.221-1.305s-2.604-2.095-3.401-3.676c-0.784-1.593-1.176-3.45-1.176-5.57 0-2.108 0.386-3.964 1.158-5.57 0.784-1.605 1.881-2.855 3.291-3.75 1.422-0.907 3.088-1.36 5-1.36 1.165 0 2.293 0.19 3.383 0.57 1.092 0.38 2.071 0.98 2.942 1.801 0.87 0.821 1.555 1.887 2.057 3.199 0.516 1.311 0.772 2.892 0.772 4.743v1.434h-16.341v-2.996h14.283l-1.858 0.993c0-1.262-0.196-2.377-0.587-3.346s-0.981-1.722-1.766-2.261c-0.772-0.551-1.734-0.827-2.886-0.827s-2.138 0.276-2.959 0.827c-0.809 0.551-1.428 1.281-1.857 2.188s-0.643 1.9-0.643 2.978v2.040c0 1.409 0.245 2.604 0.735 3.585s1.17 1.728 2.040 2.243c0.882 0.515 1.906 0.772 3.069 0.772 0.76 0 1.448-0.11 2.059-0.331 0.625-0.221 1.165-0.552 1.617-0.993 0.454-0.441 0.798-0.987 1.030-1.636l3.787 0.717c-0.307 1.103-0.845 2.071-1.617 2.904-0.774 0.833-1.747 1.483-2.923 1.949-1.165 0.453-2.494 0.68-3.989 0.68z"></path>
</symbol>
<symbol id="icon-React" viewBox="0 0 96 32">
<path style="fill: var(--color1, #fafafa)" d="M0.344 30v-29.102h10.391c2.253 0 4.121 0.391 5.605 1.172 1.484 0.768 2.598 1.842 3.34 3.223 0.742 1.367 1.113 2.949 1.113 4.746 0 1.771-0.371 3.333-1.113 4.688s-1.862 2.402-3.359 3.145c-1.484 0.742-3.359 1.113-5.625 1.113h-7.832v-3.75h7.422c1.445 0 2.611-0.208 3.496-0.625 0.898-0.417 1.549-1.009 1.953-1.777 0.417-0.768 0.625-1.699 0.625-2.793 0-1.107-0.208-2.057-0.625-2.852-0.417-0.807-1.074-1.426-1.973-1.855-0.885-0.443-2.051-0.664-3.496-0.664h-5.527v25.332h-4.395zM16.906 30l-7.051-13.145h4.863l7.187 13.145h-5zM32.493 30.449c-2.135 0-3.984-0.462-5.547-1.387s-2.767-2.226-3.613-3.906c-0.833-1.693-1.25-3.665-1.25-5.918 0-2.24 0.41-4.212 1.23-5.918 0.833-1.706 1.999-3.034 3.496-3.984 1.51-0.964 3.281-1.445 5.312-1.445 1.237 0 2.435 0.202 3.594 0.605s2.201 1.042 3.125 1.914c0.925 0.872 1.654 2.005 2.188 3.398 0.547 1.393 0.82 3.073 0.82 5.039v1.523h-17.363v-3.183h15.176l-1.973 1.055c0-1.341-0.208-2.526-0.625-3.555s-1.042-1.829-1.875-2.402c-0.82-0.586-1.842-0.879-3.066-0.879s-2.272 0.293-3.144 0.879c-0.859 0.586-1.517 1.361-1.973 2.324s-0.684 2.018-0.684 3.164v2.168c0 1.497 0.261 2.767 0.781 3.809s1.243 1.836 2.168 2.383c0.937 0.547 2.025 0.82 3.262 0.82 0.807 0 1.536-0.117 2.188-0.352 0.664-0.234 1.237-0.586 1.719-1.055s0.846-1.048 1.094-1.738l4.023 0.762c-0.325 1.172-0.898 2.2-1.719 3.086s-1.856 1.576-3.106 2.070c-1.237 0.482-2.65 0.723-4.238 0.723zM50.345 30.469c-1.38 0-2.63-0.254-3.75-0.762-1.12-0.521-2.005-1.276-2.656-2.266s-0.976-2.194-0.976-3.613c0-1.237 0.234-2.246 0.703-3.027 0.482-0.794 1.126-1.426 1.934-1.895s1.706-0.82 2.695-1.055 2.005-0.417 3.047-0.547c1.315-0.143 2.376-0.267 3.184-0.371s1.393-0.267 1.758-0.488c0.378-0.234 0.566-0.605 0.566-1.113v-0.098c0-1.237-0.352-2.194-1.055-2.871-0.69-0.677-1.719-1.016-3.086-1.016-1.419 0-2.546 0.313-3.379 0.938-0.82 0.612-1.387 1.309-1.699 2.090l-4.004-0.918c0.482-1.328 1.178-2.396 2.090-3.203 0.924-0.82 1.979-1.419 3.164-1.797 1.198-0.378 2.448-0.566 3.75-0.566 0.872 0 1.797 0.104 2.774 0.313 0.976 0.195 1.894 0.566 2.754 1.113 0.872 0.534 1.582 1.302 2.129 2.305s0.82 2.298 0.82 3.887v14.492h-4.16v-2.988h-0.156c-0.26 0.534-0.671 1.068-1.23 1.601-0.547 0.534-1.25 0.977-2.109 1.328s-1.895 0.527-3.105 0.527zM51.263 27.070c1.185 0 2.194-0.228 3.027-0.684 0.833-0.469 1.471-1.081 1.914-1.836s0.664-1.556 0.664-2.402v-2.832c-0.156 0.143-0.449 0.28-0.879 0.41s-0.918 0.241-1.465 0.332c-0.547 0.091-1.081 0.176-1.602 0.254-0.521 0.065-0.957 0.117-1.309 0.156-0.82 0.117-1.569 0.299-2.246 0.547-0.677 0.234-1.224 0.586-1.641 1.055-0.404 0.456-0.606 1.061-0.606 1.816 0 1.055 0.391 1.849 1.172 2.383s1.771 0.801 2.969 0.801zM73.549 30.449c-2.096 0-3.906-0.482-5.43-1.445s-2.695-2.292-3.516-3.984c-0.82-1.693-1.231-3.633-1.231-5.82 0-2.227 0.417-4.186 1.25-5.879 0.846-1.706 2.025-3.034 3.535-3.984 1.523-0.964 3.307-1.445 5.352-1.445 1.667 0 3.144 0.306 4.434 0.918 1.302 0.599 2.35 1.452 3.144 2.559 0.807 1.107 1.283 2.396 1.426 3.867h-4.141c-0.143-0.69-0.423-1.322-0.84-1.895-0.404-0.573-0.938-1.029-1.602-1.367s-1.452-0.508-2.363-0.508c-1.185 0-2.22 0.313-3.106 0.938-0.872 0.612-1.556 1.491-2.051 2.637s-0.742 2.5-0.742 4.063c0 1.575 0.241 2.949 0.723 4.121s1.165 2.077 2.051 2.715c0.898 0.625 1.94 0.937 3.125 0.937 1.224 0 2.266-0.339 3.125-1.016 0.872-0.677 1.432-1.602 1.68-2.773h4.141c-0.143 1.419-0.599 2.682-1.367 3.789s-1.797 1.979-3.086 2.617c-1.289 0.638-2.793 0.957-4.512 0.957zM94.878 8.164v3.418h-11.914v-3.418h11.914zM86.148 2.969h4.238v20.625c0 1.003 0.208 1.738 0.625 2.207 0.417 0.456 1.087 0.684 2.012 0.684 0.221 0 0.456-0.013 0.703-0.039 0.26-0.026 0.521-0.065 0.781-0.117l0.801 3.516c-0.43 0.143-0.898 0.254-1.406 0.332s-1.016 0.117-1.523 0.117c-1.888 0-3.399-0.527-4.531-1.582-1.133-1.068-1.699-2.487-1.699-4.258v-21.484z"></path>
</symbol>
<symbol id="icon-Soft-skills" viewBox="0 0 149 32">
<path style="fill: var(--color1, #fafafa)" d="M11.379 30.559c-2.047 0-3.824-0.319-5.331-0.956-1.495-0.65-2.665-1.575-3.511-2.776s-1.317-2.629-1.415-4.283h4.154c0.086 0.993 0.404 1.82 0.956 2.482 0.564 0.65 1.293 1.134 2.188 1.452s1.875 0.478 2.941 0.478c1.164 0 2.206-0.184 3.125-0.552s1.636-0.882 2.151-1.544c0.527-0.674 0.79-1.458 0.79-2.353 0-0.809-0.233-1.471-0.699-1.985-0.453-0.515-1.072-0.937-1.857-1.268-0.784-0.343-1.667-0.643-2.647-0.901l-3.217-0.882c-2.206-0.588-3.946-1.464-5.221-2.629-1.274-1.176-1.912-2.714-1.912-4.614 0-1.581 0.423-2.96 1.268-4.136 0.858-1.176 2.016-2.089 3.474-2.739 1.471-0.662 3.119-0.993 4.945-0.993 1.863 0 3.499 0.331 4.908 0.993 1.422 0.65 2.543 1.544 3.364 2.684 0.833 1.127 1.268 2.42 1.305 3.879h-4.007c-0.147-1.262-0.735-2.243-1.765-2.941-1.017-0.699-2.316-1.048-3.897-1.048-1.103 0-2.071 0.178-2.904 0.533-0.821 0.343-1.458 0.821-1.912 1.434-0.441 0.613-0.662 1.317-0.662 2.114 0 0.858 0.263 1.556 0.79 2.096 0.539 0.539 1.189 0.968 1.949 1.287 0.772 0.306 1.514 0.558 2.224 0.754l2.665 0.717c0.87 0.221 1.765 0.515 2.684 0.882s1.771 0.852 2.555 1.452c0.797 0.588 1.434 1.324 1.912 2.206 0.49 0.87 0.735 1.924 0.735 3.162 0 1.532-0.398 2.904-1.195 4.118-0.797 1.201-1.948 2.151-3.456 2.849-1.507 0.686-3.333 1.029-5.478 1.029zM32.427 30.54c-1.924 0-3.609-0.441-5.055-1.323-1.434-0.882-2.549-2.12-3.346-3.713-0.784-1.593-1.176-3.444-1.176-5.551 0-2.132 0.392-3.995 1.176-5.588 0.796-1.605 1.912-2.849 3.346-3.732 1.446-0.882 3.131-1.324 5.055-1.324 1.936 0 3.621 0.441 5.055 1.324s2.549 2.126 3.346 3.732c0.797 1.593 1.195 3.456 1.195 5.588 0 2.108-0.398 3.958-1.195 5.551s-1.912 2.831-3.346 3.713c-1.434 0.882-3.119 1.323-5.055 1.323zM32.427 27.176c1.262 0 2.304-0.331 3.125-0.993s1.428-1.538 1.82-2.629c0.405-1.103 0.607-2.304 0.607-3.603 0-1.324-0.202-2.537-0.607-3.64-0.392-1.103-0.999-1.985-1.82-2.647s-1.863-0.993-3.125-0.993c-1.25 0-2.286 0.331-3.107 0.993-0.809 0.662-1.416 1.544-1.82 2.647s-0.607 2.316-0.607 3.64c0 1.299 0.202 2.5 0.607 3.603 0.404 1.091 1.011 1.967 1.82 2.629 0.821 0.662 1.857 0.993 3.107 0.993zM53.935 9.566v3.217h-11.599v-3.217h11.599zM45.498 30.118v-22.941c0-1.274 0.282-2.335 0.846-3.18 0.576-0.858 1.323-1.495 2.243-1.912 0.931-0.429 1.93-0.643 2.996-0.643 0.821 0 1.52 0.067 2.096 0.202s0.999 0.251 1.268 0.349l-0.956 3.235c-0.184-0.061-0.423-0.129-0.717-0.202-0.282-0.074-0.637-0.11-1.066-0.11-0.968 0-1.667 0.245-2.096 0.735-0.429 0.478-0.643 1.176-0.643 2.096v22.371h-3.971zM65.278 9.566v3.217h-11.213v-3.217h11.213zM57.061 4.676h3.989v19.412c0 0.944 0.196 1.636 0.588 2.077 0.392 0.429 1.023 0.643 1.893 0.643 0.208 0 0.429-0.012 0.662-0.037 0.245-0.025 0.49-0.061 0.735-0.11l0.754 3.309c-0.404 0.135-0.846 0.239-1.323 0.312s-0.956 0.11-1.434 0.11c-1.777 0-3.199-0.496-4.265-1.489-1.066-1.005-1.599-2.341-1.599-4.007v-20.221zM90.39 14.603l-3.621 0.625c-0.233-0.686-0.668-1.317-1.305-1.893-0.625-0.576-1.562-0.864-2.812-0.864-1.128 0-2.071 0.257-2.831 0.772-0.747 0.502-1.121 1.146-1.121 1.93 0 0.686 0.251 1.244 0.754 1.673 0.515 0.429 1.33 0.772 2.445 1.029l3.291 0.735c1.875 0.429 3.278 1.103 4.21 2.022s1.397 2.096 1.397 3.529c0 1.238-0.355 2.341-1.066 3.309-0.711 0.956-1.697 1.71-2.96 2.261-1.262 0.539-2.721 0.809-4.375 0.809-2.304 0-4.179-0.496-5.625-1.489s-2.335-2.39-2.665-4.191l3.842-0.588c0.245 1.005 0.741 1.765 1.489 2.28 0.76 0.515 1.74 0.772 2.941 0.772 1.299 0 2.341-0.276 3.125-0.827 0.797-0.552 1.195-1.219 1.195-2.004 0-1.299-0.968-2.175-2.904-2.629l-3.474-0.772c-1.924-0.441-3.346-1.134-4.265-2.077-0.907-0.956-1.36-2.157-1.36-3.603 0-1.213 0.337-2.279 1.011-3.199 0.686-0.919 1.624-1.63 2.812-2.132 1.201-0.515 2.568-0.772 4.099-0.772 2.23 0 3.977 0.484 5.239 1.452 1.275 0.968 2.12 2.249 2.537 3.842zM96.512 23.151l-0.055-4.871h0.717l8.18-8.713h4.779l-9.32 9.927h-0.662l-3.64 3.658zM92.835 30.118v-27.39h3.971v27.39h-3.971zM105.776 30.118l-7.353-9.743 2.757-2.812 9.522 12.555h-4.927zM111.457 30.118v-20.551h3.971v20.551h-3.971zM113.461 6.404c-0.699 0-1.293-0.233-1.783-0.699s-0.735-1.023-0.735-1.673c0-0.662 0.245-1.226 0.735-1.691s1.085-0.699 1.783-0.699c0.686 0 1.275 0.233 1.765 0.699 0.502 0.466 0.754 1.029 0.754 1.691 0 0.649-0.251 1.207-0.754 1.673-0.49 0.466-1.078 0.699-1.765 0.699zM122.469 2.728v27.39h-3.971v-27.39h3.971zM129.51 2.728v27.39h-3.97v-27.39h3.97zM147.949 14.603l-3.621 0.625c-0.233-0.686-0.668-1.317-1.305-1.893-0.625-0.576-1.563-0.864-2.813-0.864-1.127 0-2.071 0.257-2.831 0.772-0.747 0.502-1.121 1.146-1.121 1.93 0 0.686 0.251 1.244 0.754 1.673 0.515 0.429 1.33 0.772 2.445 1.029l3.291 0.735c1.875 0.429 3.278 1.103 4.209 2.022s1.397 2.096 1.397 3.529c0 1.238-0.355 2.341-1.066 3.309-0.711 0.956-1.697 1.71-2.96 2.261-1.262 0.539-2.721 0.809-4.375 0.809-2.304 0-4.179-0.496-5.625-1.489s-2.334-2.39-2.665-4.191l3.842-0.588c0.245 1.005 0.741 1.765 1.489 2.28 0.76 0.515 1.74 0.772 2.941 0.772 1.299 0 2.341-0.276 3.125-0.827 0.797-0.552 1.195-1.219 1.195-2.004 0-1.299-0.968-2.175-2.904-2.629l-3.474-0.772c-1.924-0.441-3.345-1.134-4.265-2.077-0.907-0.956-1.36-2.157-1.36-3.603 0-1.213 0.337-2.279 1.011-3.199 0.686-0.919 1.624-1.63 2.813-2.132 1.201-0.515 2.567-0.772 4.099-0.772 2.23 0 3.977 0.484 5.239 1.452 1.275 0.968 2.12 2.249 2.537 3.842z"></path>
</symbol>
<symbol id="icon-close" viewBox="0 0 32 32">
<path fill="none" stroke-width="2.2857" stroke-miterlimit="4" stroke-linecap="round" stroke-linejoin="round" style="stroke: var(--color1, #fafafa)" d="M24 8l-16 16"></path>
<path fill="none" stroke-width="2.2857" stroke-miterlimit="4" stroke-linecap="round" stroke-linejoin="round" style="stroke: var(--color1, #fafafa)" d="M8 8l16 16"></path>
</symbol>
</defs>
</svg>
